<?xml version="1.0" ?>
<!DOCTYPE svg  PUBLIC '-//W3C//DTD SVG 1.1//EN'  'http://www.w3.org/Graphics/SVG/1.1/DTD/svg11.dtd'>
<!-- Uploaded to: SVG Repo, www.svgrepo.com, Generator: SVG Repo Mixer Tools -->
<svg fill="#000000" width="800px" height="800px" viewBox="0 0 32 32" style="fill-rule:evenodd;clip-rule:evenodd;stroke-linejoin:round;stroke-miterlimit:2;" version="1.1" xml:space="preserve" xmlns="http://www.w3.org/2000/svg" xmlns:serif="http://www.serif.com/" xmlns:xlink="http://www.w3.org/1999/xlink">
<g transform="matrix(1,0,0,1,-432,-336)">
<g transform="matrix(1,0,0,1,-2,0)">
<path d="M442,342C442,341.448 441.552,341 441,341C440.389,341 439.611,341 439,341C438.448,341 438,341.448 438,342C438,345.669 438,358.262 438,359.838C438,359.945 438.017,360.052 438.051,360.154C438.197,360.591 438.63,361.891 439.051,363.154C439.187,363.562 439.57,363.838 440,363.838C440.43,363.838 440.813,363.562 440.949,363.154C441.37,361.891 441.803,360.591 441.949,360.154C441.983,360.052 442,359.945 442,359.838C442,358.262 442,345.669 442,342Z" style="fill:rgb(144,224,239);"/>
</g>
<g transform="matrix(1.14286,0,0,0.916667,-65.7143,30.3333)">
<path d="M460,342.182C460,341.603 459.816,341.048 459.487,340.639C459.159,340.23 458.714,340 458.25,340C455.56,340 450.44,340 447.75,340C447.286,340 446.841,340.23 446.513,340.639C446.184,341.048 446,341.603 446,342.182C446,346.746 446,357.254 446,361.818C446,362.397 446.184,362.952 446.513,363.361C446.841,363.77 447.286,364 447.75,364C450.44,364 455.56,364 458.25,364C458.714,364 459.159,363.77 459.487,363.361C459.816,362.952 460,362.397 460,361.818C460,357.254 460,346.746 460,342.182Z" style="fill:rgb(144,224,239);"/>
</g>
<path d="M456,341L453,341L453,340C453,339.448 452.552,339 452,339C451.448,339 451,339.448 451,340L451,341L448,341L448,340C448,339.448 447.552,339 447,339C446.448,339 446,339.448 446,340L446,341L446,341C445.204,341 444.441,341.316 443.879,341.879C443.316,342.441 443,343.204 443,344L443,362C443,362.796 443.316,363.559 443.879,364.121C444.441,364.684 445.204,365 446,365L458,365C458.796,365 459.559,364.684 460.121,364.121C460.684,363.559 461,362.796 461,362L461,344C461,343.204 460.684,342.441 460.121,341.879C459.559,341.316 458.796,341 458,341L458,341L458,340C458,339.448 457.552,339 457,339C456.448,339 456,339.448 456,340L456,341ZM441,342C441,340.895 440.105,340 439,340L437,340C435.895,340 435,340.895 435,342C435,345.669 435,358.262 435,359.838C435,360.053 435.035,360.266 435.103,360.47L436.103,363.47C436.375,364.287 437.139,364.838 438,364.838C438.861,364.838 439.625,364.287 439.897,363.47L440.897,360.47C440.965,360.266 441,360.053 441,359.838C441,358.262 441,345.669 441,342ZM459,349L459,362C459,362.265 458.895,362.52 458.707,362.707C458.52,362.895 458.265,363 458,363C458,363 446,363 446,363C445.735,363 445.48,362.895 445.293,362.707C445.105,362.52 445,362.265 445,362L445,349L459,349ZM439,359L439,359.838C439,359.838 438,362.838 438,362.838C438,362.838 437,359.838 437,359.838C437.034,359.94 437,359.73 437,359.838L437,359L439,359ZM448,361L453,361C453.552,361 454,360.552 454,360C454,359.448 453.552,359 453,359L448,359C447.448,359 447,359.448 447,360C447,360.552 447.448,361 448,361ZM437,346L437,357L439,357L439,346L437,346ZM448,357L456,357C456.552,357 457,356.552 457,356C457,355.448 456.552,355 456,355L448,355C447.448,355 447,355.448 447,356C447,356.552 447.448,357 448,357ZM448,353L456,353C456.552,353 457,352.552 457,352C457,351.448 456.552,351 456,351L448,351C447.448,351 447,351.448 447,352C447,352.552 447.448,353 448,353ZM456,343L453,343L453,344C453,344.552 452.552,345 452,345C451.448,345 451,344.552 451,344L451,343L448,343L448,344C448,344.552 447.552,345 447,345C446.448,345 446,344.552 446,344L446,343L446,343C445.735,343 445.48,343.105 445.293,343.293C445.105,343.48 445,343.735 445,344L445,347L459,347L459,344C459,343.735 458.895,343.48 458.707,343.293C458.52,343.105 458.265,343 458,343L458,344C458,344.552 457.552,345 457,345C456.448,345 456,344.552 456,344L456,343ZM437,344L437,342L439,342L439,344L437,344Z" style="fill:rgb(25,144,167);"/>
</g>
</svg>