<?xml version="1.0" ?>
<!DOCTYPE svg  PUBLIC '-//W3C//DTD SVG 1.1//EN'  'http://www.w3.org/Graphics/SVG/1.1/DTD/svg11.dtd'>
<!-- Uploaded to: SVG Repo, www.svgrepo.com, Generator: SVG Repo Mixer Tools -->
<svg width="800px" height="800px" viewBox="0 0 512 512" enable-background="new 0 0 512 512" id="Layer_1" version="1.1" xml:space="preserve" xmlns="http://www.w3.org/2000/svg" xmlns:xlink="http://www.w3.org/1999/xlink">
<g>
<g>
<rect fill="#D9DCE1" height="267.489" width="404.88" x="53.56" y="97.733"/>
<path d="M458.44,375.223H53.56c-5.523,0-10-4.478-10-10V97.733c0-5.522,4.477-10,10-10h404.88    c5.523,0,10,4.478,10,10v267.489C468.44,370.745,463.963,375.223,458.44,375.223z M63.56,355.223h384.88V107.733H63.56V355.223z" fill="#444B54"/>
</g>
<g>
<polygon fill="#65A0D6" points="352,173.925 352,317.024 160,317.024 160,137.755 304.75,137.755   "/>
<path d="M352,327.024H160c-5.523,0-10-4.478-10-10v-179.27c0-5.522,4.477-10,10-10h144.75    c2.197,0,4.333,0.724,6.079,2.06l47.25,36.17c2.472,1.892,3.921,4.827,3.921,7.94v143.1C362,322.547,357.523,327.024,352,327.024z     M170,307.024h172V178.863l-40.638-31.108H170V307.024z" fill="#444B54"/>
</g>
<g>
<path d="M207.13,263.59L207.13,263.59c-2.652,0-5.196-1.054-7.071-2.929l-15.186-15.187    c-3.905-3.905-3.905-10.237,0-14.143c3.905-3.904,10.237-3.903,14.142,0l8.115,8.115l32.661-32.659    c3.905-3.903,10.236-3.903,14.142,0c3.905,3.905,3.905,10.237,0,14.143l-39.731,39.73    C212.326,262.536,209.783,263.59,207.13,263.59z" fill="#444B54"/>
</g>
<g>
<g>
<path d="M323.183,262.219c-2.641,0-5.276-1.039-7.241-3.102L280.7,222.131c-3.81-3.999-3.657-10.328,0.341-14.139     c4-3.809,10.329-3.656,14.138,0.342l35.242,36.986c3.81,3.999,3.657,10.328-0.341,14.139     C328.144,261.303,325.661,262.219,323.183,262.219z" fill="#444B54"/>
</g>
<g>
<path d="M287.068,261.345c-2.641,0-5.276-1.039-7.242-3.103c-3.81-3.999-3.656-10.328,0.343-14.138l36.99-35.238     c3.999-3.808,10.328-3.657,14.138,0.343c3.81,3.999,3.656,10.328-0.343,14.138l-36.99,35.238     C292.028,260.429,289.546,261.345,287.068,261.345z" fill="#444B54"/>
</g>
</g>
<g>
<path d="M458.44,375.223H53.56c-5.523,0-10-4.478-10-10V97.733c0-5.522,4.477-10,10-10h404.88    c5.523,0,10,4.478,10,10v267.489C468.44,370.745,463.963,375.223,458.44,375.223z M63.56,355.223h384.88V107.733H63.56V355.223z" fill="#444B54"/>
</g>
<g>
<path d="M458.44,375.223H53.56c-5.523,0-10-4.478-10-10v-48.194c0-5.522,4.477-10,10-10h404.88    c5.523,0,10,4.478,10,10v48.194C468.44,370.745,463.963,375.223,458.44,375.223z M63.56,355.223h384.88v-28.194H63.56V355.223z" fill="#444B54"/>
</g>
<g>
<path d="M286.396,424.267h-60.793c-5.523,0-10-4.478-10-10v-49.044c0-5.522,4.477-10,10-10h60.793    c5.523,0,10,4.478,10,10v49.044C296.396,419.789,291.919,424.267,286.396,424.267z M235.604,404.267h40.793v-29.044h-40.793    V404.267z" fill="#444B54"/>
</g>
<g>
<path d="M319.629,424.267H192.371c-5.523,0-10-4.478-10-10s4.477-10,10-10h127.258c5.523,0,10,4.478,10,10    S325.152,424.267,319.629,424.267z" fill="#444B54"/>
</g>
<g>
<path d="M352,327.024H160c-5.523,0-10-4.478-10-10v-179.27c0-5.522,4.477-10,10-10h144.75    c2.197,0,4.333,0.724,6.079,2.06l47.25,36.17c2.472,1.892,3.921,4.827,3.921,7.94v143.1C362,322.547,357.523,327.024,352,327.024z     M170,307.024h172V178.863l-40.638-31.108H170V307.024z" fill="#444B54"/>
</g>
<g>
<path d="M352.02,183.925c-0.007,0-0.014,0-0.02,0h-47.25c-5.523,0-10-4.478-10-10v-36.17    c0-3.806,2.16-7.281,5.572-8.966c3.414-1.685,7.485-1.288,10.507,1.025l46.856,35.869c2.619,1.803,4.335,4.821,4.335,8.241    C362.02,179.447,357.543,183.925,352.02,183.925z M314.75,163.925h7.735l-7.735-5.921V163.925z" fill="#444B54"/>
</g>
<g>
<path d="M207.13,263.59L207.13,263.59c-2.652,0-5.196-1.054-7.071-2.929l-15.186-15.187    c-3.905-3.905-3.905-10.237,0-14.143c3.905-3.904,10.237-3.903,14.142,0l8.115,8.115l32.661-32.659    c3.905-3.903,10.236-3.903,14.142,0c3.905,3.905,3.905,10.237,0,14.143l-39.731,39.73    C212.326,262.536,209.783,263.59,207.13,263.59z" fill="#444B54"/>
</g>
<g>
<g>
<path d="M323.183,262.219c-2.641,0-5.276-1.039-7.241-3.102L280.7,222.131c-3.81-3.999-3.657-10.328,0.341-14.139     c4-3.809,10.329-3.656,14.138,0.342l35.242,36.986c3.81,3.999,3.657,10.328-0.341,14.139     C328.144,261.303,325.661,262.219,323.183,262.219z" fill="#444B54"/>
</g>
<g>
<path d="M287.068,261.345c-2.641,0-5.276-1.039-7.242-3.103c-3.81-3.999-3.656-10.328,0.343-14.138l36.99-35.238     c3.999-3.808,10.328-3.657,14.138,0.343c3.81,3.999,3.656,10.328-0.343,14.138l-36.99,35.238     C292.028,260.429,289.546,261.345,287.068,261.345z" fill="#444B54"/>
</g>
</g>
<g>
<rect fill="#3C74BA" height="48.194" width="404.88" x="53.56" y="317.028"/>
<path d="M458.44,375.223H53.56c-5.523,0-10-4.478-10-10v-48.194c0-5.522,4.477-10,10-10h404.88    c5.523,0,10,4.478,10,10v48.194C468.44,370.745,463.963,375.223,458.44,375.223z M63.56,355.223h384.88v-28.194H63.56V355.223z" fill="#444B54"/>
</g>
<g>
<path d="M286.396,424.267h-60.793c-5.523,0-10-4.478-10-10v-49.044c0-5.522,4.477-10,10-10h60.793    c5.523,0,10,4.478,10,10v49.044C296.396,419.789,291.919,424.267,286.396,424.267z M235.604,404.267h40.793v-29.044h-40.793    V404.267z" fill="#444B54"/>
</g>
<g>
<path d="M319.629,424.267H192.371c-5.523,0-10-4.478-10-10s4.477-10,10-10h127.258c5.523,0,10,4.478,10,10    S325.152,424.267,319.629,424.267z" fill="#444B54"/>
</g>
<g>
<path d="M352.02,183.925c-0.007,0-0.014,0-0.02,0h-47.25c-5.523,0-10-4.478-10-10v-36.17    c0-3.806,2.16-7.281,5.572-8.966c3.414-1.685,7.485-1.288,10.507,1.025l46.856,35.869c2.619,1.803,4.335,4.821,4.335,8.241    C362.02,179.447,357.543,183.925,352.02,183.925z M314.75,163.925h7.735l-7.735-5.921V163.925z" fill="#444B54"/>
</g>
</g>
</svg>